<?xml version="1.0" encoding="iso-8859-1"?>
<!-- Generator: Adobe Illustrator 19.0.0, SVG Export Plug-In . SVG Version: 6.00 Build 0)  -->
<svg version="1.1" id="Capa_1" xmlns="http://www.w3.org/2000/svg" xmlns:xlink="http://www.w3.org/1999/xlink" x="0px" y="0px"
	 viewBox="0 0 512.008 512.008" style="enable-background:new 0 0 512.008 512.008;" xml:space="preserve">
<path style="fill:#49AA26;" d="M349.06,173.982c-2.014-2.112-4.804-3.307-7.723-3.307H170.671c-2.918-0.001-5.709,1.194-7.723,3.307
	c-4.48,4.693-109.611,115.861-109.611,178.027c0,88.235,90.923,160,202.667,160s202.667-71.765,202.667-160
	C458.671,289.843,353.54,178.675,349.06,173.982z"/>
<path style="fill:#49AA26;" d="M341.338,128.008H170.671c-5.891,0-10.667,4.776-10.667,10.667c0,5.891,4.776,10.667,10.667,10.667
	h170.667c5.891,0,10.667-4.776,10.667-10.667C352.004,132.784,347.229,128.008,341.338,128.008z"/>
<path style="fill:#49AA26;" d="M161.135,100.787c1.808,3.609,5.499,5.888,9.536,5.888h170.667c4.037,0,7.728-2.279,9.536-5.888
	l42.667-85.333c2.639-5.267,0.508-11.676-4.759-14.315c-3.007-1.507-6.549-1.507-9.556,0l-78.421,39.232L263.556,3.123
	c-4.165-4.164-10.917-4.164-15.083,0l-37.269,37.248L132.783,1.139c-5.267-2.639-11.676-0.508-14.315,4.759
	c-1.507,3.007-1.507,6.549,0,9.556L161.135,100.787z"/>
<g>
	<path style="fill:#FAFAFA;" d="M256.004,426.675c-25.365,2.505-48.469-14.703-53.333-39.723c-0.492-5.867,3.862-11.023,9.728-11.52
		c5.829-0.375,10.914,3.919,11.52,9.728c0.939,11.115,15.296,20.181,32,20.181c17.365,0,32-9.771,32-21.333
		c0-10.411-10.112-17.067-31.787-21.099l-2.261-0.448c-34.603-6.4-51.2-20.544-51.2-42.453c3.337-26.292,26.95-45.182,53.333-42.667
		c25.358-2.507,48.46,14.69,53.333,39.701c0.504,5.869-3.845,11.036-9.715,11.54c-0.004,0-0.009,0.001-0.013,0.001
		c-5.832,0.386-10.924-3.913-11.52-9.728c-0.981-11.136-15.339-20.181-32.085-20.181c-17.365,0-32,9.771-32,21.333
		c0,10.411,10.133,17.067,31.872,21.12l2.325,0.448c34.56,6.4,51.2,20.544,51.2,42.453
		C306.054,410.34,282.404,429.228,256.004,426.675z"/>
	<path style="fill:#FAFAFA;" d="M256.004,448.008c-5.891,0-10.667-4.776-10.667-10.667V266.675c0-5.891,4.776-10.667,10.667-10.667
		c5.891,0,10.667,4.776,10.667,10.667v170.667C266.671,443.233,261.895,448.008,256.004,448.008z"/>
</g>
<g>
</g>
<g>
</g>
<g>
</g>
<g>
</g>
<g>
</g>
<g>
</g>
<g>
</g>
<g>
</g>
<g>
</g>
<g>
</g>
<g>
</g>
<g>
</g>
<g>
</g>
<g>
</g>
<g>
</g>
</svg>
